<svg width="39" height="18" viewBox="0 0 39 18" fill="none" xmlns="http://www.w3.org/2000/svg">
<path d="M5.29702 0L3.82865 8.36423L3.47227 10.5181L3.11784 8.49081L1.62221 0L1.445 0.0253166H0V17.8424H1.62221V9.42753L2.63682 15.2328H4.28435L5.32234 9.30094V17.8677H6.94455V0.0253166H5.5015L5.29702 0Z" fill="black"/>
<path d="M14.2824 0H11.2678H10V17.8171H11.6222H14.2824V16.1949H11.6222V9.65537H13.7761V8.03511H11.6222V1.62221H14.2824V0Z" fill="black"/>
<path d="M21.4157 0.0507812H17.3086V17.8678H18.9308V9.83468H20.7302V17.8678H22.3778V9.78405L21.5423 8.97197L22.3778 8.13652V0.989444L21.4157 0.0507812ZM20.7302 1.67299V8.16184H18.9308V1.67299H20.7302Z" fill="black"/>
<path d="M26.3839 0.0507812L25.4219 0.989444V16.9311L26.3839 17.8678H29.4764L30.4404 16.9311V9.73147H27.8542V11.3537H28.7929V16.2456H27.0441V1.67299H28.7929V5.11995H30.4404V0.989444L29.4764 0.0507812H26.3839Z" fill="black"/>
<path d="M38.499 0.0507812H36.8515V16.2456H35.1027V0.0507812H33.4805V16.9311L34.4444 17.8678H37.537L38.499 16.9311V0.0507812Z" fill="black"/>
</svg>
