<svg width="246" height="47" viewBox="0 0 246 47" fill="none" xmlns="http://www.w3.org/2000/svg">
<path fill-rule="evenodd" clip-rule="evenodd" d="M32.3047 35.9033H58.2179L65.5963 44.4734H40.8241L32.3047 35.9033Z" fill="#C0F10A"/>
<path fill-rule="evenodd" clip-rule="evenodd" d="M16.3796 0H67.8511L80.9345 13.1595L63.5914 33.0635H30.249L18.9658 44.4734H0L23.3523 19.549H56.1876L61.8672 13.5651L29.9701 13.6159L16.3796 0Z" fill="#C0F10A"/>
<path d="M93.2305 7.63184H104.666C107.455 7.65719 108.849 9.05174 108.849 11.8155V21.197C108.849 23.9607 107.455 25.3553 104.666 25.3553H99.4679V36.8159H93.2305V7.63184ZM99.4679 20.1574H101.547C102.257 20.1574 102.587 19.8024 102.587 19.1178V13.8946C102.587 13.21 102.257 12.8551 101.547 12.8551H99.4679V20.1574Z" fill="white"/>
<path d="M123.43 7.65723V12.8551H117.192V19.625L123.405 19.6503L121.325 24.8228H117.167L117.192 31.5927H123.43V36.816H110.955L110.93 7.65723H123.43Z" fill="white"/>
<path d="M125.48 7.63184L136.916 7.65719C139.705 7.65719 141.074 9.05174 141.074 11.8155V32.6323C141.074 35.4214 139.705 36.8159 136.916 36.8159H125.48V7.63184ZM131.718 31.5927H133.797C134.507 31.5927 134.837 31.2631 134.837 30.5531V13.8946C134.837 13.21 134.507 12.8551 133.797 12.8551H131.718V31.5927Z" fill="white"/>
<path d="M149.417 20.1574H151.496C152.181 20.1574 152.536 19.8024 152.536 19.1178V13.8946C152.536 13.21 152.181 12.8551 151.496 12.8551H149.417V20.1574ZM149.417 25.8624V36.8159H143.18V7.63184H154.615C157.404 7.65719 158.773 9.05174 158.773 11.8155V21.197C158.773 23.6565 157.683 25.0256 155.502 25.3046L158.773 36.8159H152.536L149.417 25.8624Z" fill="white"/>
<path d="M165.035 7.65723H172.312C175.076 7.65723 176.47 9.05177 176.47 11.8155V32.6323C176.47 35.4214 175.076 36.816 172.312 36.816H165.035C162.246 36.816 160.852 35.4214 160.852 32.6323V11.8155C160.852 9.05177 162.246 7.65723 165.035 7.65723ZM167.114 13.8947V30.5532C167.114 31.2631 167.444 31.5927 168.154 31.5927H169.193C169.878 31.5927 170.233 31.2631 170.233 30.5532V13.8947C170.233 13.2101 169.878 12.8551 169.193 12.8551H168.154C167.444 12.8551 167.114 13.2101 167.114 13.8947Z" fill="white"/>
<path d="M191.556 20.1574H193.635C194.319 20.1574 194.674 19.8024 194.674 19.1178V13.8946C194.674 13.21 194.319 12.8551 193.635 12.8551H191.556V20.1574ZM191.556 25.8624V36.8159H185.293V7.63184H196.754C199.517 7.65719 200.912 9.05174 200.912 11.8155V21.197C200.912 23.6565 199.822 25.0256 197.616 25.3046L200.912 36.8159H194.674L191.556 25.8624Z" fill="white"/>
<path d="M213.794 31.5927L211.841 15.9738L209.23 36.816H202.992L206.643 7.65723H217.039L220.69 36.816H211.841V31.5927H213.794Z" fill="white"/>
<path d="M223.636 36.816L219.984 7.65723H226.247L228.833 28.474L231.445 7.65723H237.682L234.057 36.816H223.636Z" fill="white"/>
<path d="M245.997 7.65719V36.8159L239.734 36.7906V7.63184L245.997 7.65719Z" fill="white"/>
<path d="M94.8786 42.3691H93.2305V41.6338H97.3888V42.3691H95.7407V46.8316H94.8786V42.3691Z" fill="#C0F10A"/>
<path d="M99.4961 41.6338H102.158C102.589 41.6338 102.944 41.7352 103.198 41.9634C103.452 42.217 103.604 42.5212 103.604 42.9016V43.4087C103.604 43.6876 103.502 43.9158 103.35 44.0933C103.198 44.2961 102.995 44.4482 102.716 44.5243V44.5497C102.868 44.6511 102.995 44.7525 103.097 44.9046C103.198 45.0568 103.274 45.2343 103.35 45.4878L103.756 46.8316H102.868L102.463 45.5385C102.387 45.3103 102.285 45.1328 102.158 45.0314C102.032 44.9046 101.88 44.8539 101.702 44.8539H100.358V46.8316H99.4961V41.6338ZM101.981 44.0933C102.209 44.0933 102.387 44.0426 102.513 43.9158C102.666 43.789 102.716 43.6369 102.716 43.434V42.9269C102.716 42.7494 102.666 42.6227 102.564 42.5212C102.463 42.4198 102.336 42.3691 102.158 42.3691H100.358V44.0933H101.981Z" fill="#C0F10A"/>
<path d="M108.925 45.5385H106.846L106.364 46.8316H105.477L107.48 41.6338H107.885C108.139 41.6338 108.342 41.7606 108.443 42.0141L110.294 46.8316H109.381L108.925 45.5385ZM107.099 44.8032H108.671L107.885 42.6987L107.099 44.8032Z" fill="#C0F10A"/>
<path d="M112.398 41.6338H113.261V46.8316H112.398V41.6338Z" fill="#C0F10A"/>
<path d="M116.431 46.8316C116.253 46.8316 116.076 46.7556 115.974 46.6542C115.848 46.5274 115.797 46.3753 115.797 46.1978V41.6338H116.659V46.071H119.499V46.8316H116.431Z" fill="#C0F10A"/>
<path d="M123.836 41.6338H126.498C126.929 41.6338 127.284 41.7352 127.538 41.9634C127.791 42.217 127.944 42.5212 127.944 42.9016V43.4087C127.944 43.6876 127.867 43.9158 127.69 44.0933C127.538 44.2961 127.335 44.4482 127.056 44.5243V44.5497C127.208 44.6511 127.335 44.7525 127.436 44.9046C127.538 45.0568 127.614 45.2343 127.69 45.4878L128.096 46.8316H127.208L126.803 45.5385C126.726 45.3103 126.625 45.1328 126.498 45.0314C126.371 44.9046 126.219 44.8539 126.042 44.8539H124.698V46.8316H123.836V41.6338ZM126.321 44.0933C126.549 44.0933 126.726 44.0426 126.853 43.9158C127.005 43.789 127.056 43.6369 127.056 43.434V42.9269C127.056 42.7494 127.005 42.6227 126.904 42.5212C126.803 42.4198 126.676 42.3691 126.498 42.3691H124.698V44.0933H126.321Z" fill="#C0F10A"/>
<path d="M131.976 46.8824C131.621 46.8824 131.317 46.8063 131.063 46.6542C130.784 46.502 130.582 46.2992 130.429 46.0203C130.277 45.7414 130.227 45.4117 130.227 45.0568V41.6338H131.089V45.0568C131.089 45.361 131.165 45.6146 131.342 45.8174C131.494 46.0203 131.697 46.1217 131.976 46.1217H132.762C133.041 46.1217 133.269 46.0203 133.421 45.8174C133.599 45.6146 133.675 45.361 133.675 45.0568V41.6338H134.537V45.0568C134.537 45.4117 134.461 45.7414 134.334 46.0203C134.182 46.2992 133.954 46.502 133.7 46.6542C133.421 46.8063 133.117 46.8824 132.762 46.8824H131.976Z" fill="#C0F10A"/>
<path d="M136.973 41.6338H137.759L140.396 45.4371V41.6338H141.232V46.8316H140.446L137.835 43.0283V46.8316H136.973V41.6338Z" fill="#C0F10A"/>
<path d="M143.691 41.6338H144.477L147.089 45.4371V41.6338H147.951V46.8316H147.165L144.528 43.0283V46.8316H143.691V41.6338Z" fill="#C0F10A"/>
<path d="M150.484 41.6338H151.346V46.8316H150.484V41.6338Z" fill="#C0F10A"/>
<path d="M153.883 41.6338H154.669L157.28 45.4371V41.6338H158.143V46.8316H157.357L154.72 43.0283V46.8316H153.883V41.6338Z" fill="#C0F10A"/>
<path d="M162.3 46.8823C161.92 46.8823 161.59 46.8062 161.311 46.6287C161.032 46.4766 160.83 46.2484 160.677 45.9441C160.525 45.6652 160.449 45.3102 160.449 44.9299V43.51C160.449 43.1297 160.525 42.7747 160.677 42.4958C160.83 42.1915 161.058 41.9633 161.337 41.8112C161.616 41.6337 161.945 41.5576 162.326 41.5576H163.137C163.492 41.5576 163.796 41.6337 164.075 41.7858C164.354 41.9379 164.557 42.1408 164.709 42.3943C164.861 42.6733 164.937 42.9775 164.937 43.3071H164.075C164.075 43.0282 163.999 42.7747 163.821 42.5972C163.644 42.4197 163.416 42.3183 163.137 42.3183H162.326C162.021 42.3183 161.768 42.4451 161.59 42.6479C161.413 42.8761 161.311 43.1804 161.311 43.5353V44.9045C161.311 45.2595 161.413 45.5638 161.59 45.792C161.768 45.9948 161.996 46.1216 162.3 46.1216H163.137C163.441 46.1216 163.669 46.0202 163.847 45.8173C164.024 45.6145 164.126 45.3609 164.126 45.0313V44.7778H162.68V44.0171H164.988V45.0313C164.988 45.3863 164.912 45.7159 164.76 45.9948C164.582 46.2737 164.379 46.5019 164.1 46.6541C163.821 46.8062 163.517 46.8823 163.137 46.8823H162.3Z" fill="#C0F10A"/>
</svg>
