<svg width="24" height="16" viewBox="0 0 24 16" fill="none" xmlns="http://www.w3.org/2000/svg">
<path d="M22.1352 0.169434H1.86207C0.916576 0.169434 0.125 0.96101 0.125 1.9065V14.022C0.125 14.9895 0.916576 15.7811 1.86207 15.7811H22.1352C23.1027 15.7811 23.8943 14.9895 23.8943 14.022V1.9065C23.8943 0.96101 23.1027 0.169434 22.1352 0.169434ZM22.487 2.19235L12.2185 7.8873C12.1746 7.90929 12.1086 7.93128 12.0426 7.93128H11.9767C11.9107 7.93128 11.8447 7.90929 11.7788 7.8873L1.53225 2.19235C1.33435 2.08241 1.26839 1.84054 1.37833 1.64265C1.48827 1.44475 1.73014 1.37879 1.92804 1.48873L11.9986 7.09573L22.0912 1.48873C22.2891 1.37879 22.531 1.44475 22.6409 1.64265C22.7509 1.84054 22.6849 2.08241 22.487 2.19235Z" fill="#C0F10A"/>
</svg>
