<svg width="25" height="25" viewBox="0 0 25 25" fill="none" xmlns="http://www.w3.org/2000/svg">
<path d="M18.5506 4.33105C17.7542 4.33105 17.1133 4.97202 17.1133 5.74894C17.1133 6.52586 17.7542 7.16683 18.5506 7.16683C19.3275 7.16683 19.9685 6.52586 19.9685 5.74894C19.9685 4.97202 19.3275 4.33105 18.5506 4.33105Z" fill="white"/>
<path d="M12.2207 15.9465C10.123 15.9465 8.39435 14.2372 8.39435 12.1201C8.39435 10.003 10.123 8.29377 12.2207 8.29377C14.3378 8.29377 16.0471 10.003 16.0471 12.1201C16.0471 14.2372 14.3378 15.9465 12.2207 15.9465ZM12.2207 6.15723C8.9382 6.15723 6.25781 8.83761 6.25781 12.1201C6.25781 15.4026 8.9382 18.083 12.2207 18.083C15.5226 18.083 18.203 15.4026 18.203 12.1201C18.203 8.83761 15.5226 6.15723 12.2207 6.15723Z" fill="white"/>
<path d="M7.28366 2.2725C4.52558 2.2725 2.2725 4.52558 2.2725 7.28366V16.9564C2.2725 19.7144 4.52558 21.9675 7.28366 21.9675H16.9564C19.7144 21.9675 21.9675 19.7144 21.9675 16.9564V7.28366C21.9675 4.52558 19.7144 2.2725 16.9564 2.2725H7.28366ZM16.9564 24.24H7.28366C3.26308 24.24 0 20.9769 0 16.9564V7.28366C0 3.26308 3.26308 0 7.28366 0H16.9564C20.9769 0 24.24 3.26308 24.24 7.28366V16.9564C24.24 20.9769 20.9769 24.24 16.9564 24.24Z" fill="white"/>
</svg>
