<svg width="27" height="27" viewBox="0 0 27 27" fill="none" xmlns="http://www.w3.org/2000/svg">
<path d="M20.2105 4.71924C19.3429 4.71924 18.6445 5.41758 18.6445 6.26405C18.6445 7.11053 19.3429 7.80887 20.2105 7.80887C21.057 7.80887 21.7553 7.11053 21.7553 6.26405C21.7553 5.41758 21.057 4.71924 20.2105 4.71924Z" fill="#C0F10A"/>
<path d="M13.3131 17.3741C11.0276 17.3741 9.14421 15.5118 9.14421 13.2052C9.14421 10.8985 11.0276 9.0363 13.3131 9.0363C15.6197 9.0363 17.482 10.8985 17.482 13.2052C17.482 15.5118 15.6197 17.3741 13.3131 17.3741ZM13.3131 6.7085C9.73674 6.7085 6.81641 9.62883 6.81641 13.2052C6.81641 16.7815 9.73674 19.7019 13.3131 19.7019C16.9106 19.7019 19.8309 16.7815 19.8309 13.2052C19.8309 9.62883 16.9106 6.7085 13.3131 6.7085Z" fill="#C0F10A"/>
<path d="M7.9357 2.47594C4.93071 2.47594 2.47594 4.93071 2.47594 7.9357V18.4743C2.47594 21.4793 4.93071 23.9341 7.9357 23.9341H18.4743C21.4793 23.9341 23.9341 21.4793 23.9341 18.4743V7.9357C23.9341 4.93071 21.4793 2.47594 18.4743 2.47594H7.9357ZM18.4743 26.41H7.9357C3.55519 26.41 0 22.8548 0 18.4743V7.9357C0 3.55519 3.55519 0 7.9357 0H18.4743C22.8548 0 26.41 3.55519 26.41 7.9357V18.4743C26.41 22.8548 22.8548 26.41 18.4743 26.41Z" fill="#C0F10A"/>
</svg>
