<svg width="20" height="17" viewBox="0 0 20 17" fill="none" xmlns="http://www.w3.org/2000/svg">
<path fill-rule="evenodd" clip-rule="evenodd" d="M5.73359 9.0212C5.30017 8.73226 3.6068 7.3312 3.1297 6.95825L0.858442 5.14057C0.22175 4.60972 0 5.29849 0 5.37744C0 5.52024 0.248629 6.00742 0.310786 6.13173C0.430061 6.37028 0.525817 6.60715 0.651811 6.85914C0.784525 7.12121 0.865162 7.31104 0.992836 7.58487C1.11379 7.84526 1.22971 8.03509 1.3389 8.30388C1.43802 8.54746 1.58081 8.78097 1.68833 9.0212C2.31494 10.429 3.08434 11.9728 3.74792 13.4058L4.78611 15.5679C5.00282 16.0013 5.26993 16.8866 5.64455 16.8866C5.96374 16.8866 6.07293 16.7405 6.26612 16.4868C6.35012 16.3793 6.4106 16.3322 6.49459 16.2281L7.14809 15.4587C7.73606 14.7296 8.84985 13.5654 9.39583 12.8615L10.9447 11.0774C11.4773 10.5298 12.5541 9.14048 13.1656 8.49875L17.4108 3.58832C17.95 3.00707 19.1629 1.48337 19.6333 1.01132C20.1675 0.472059 20.1356 0 19.4216 0L17.7148 1.09195C17.1302 1.48337 16.5893 1.84288 16.008 2.23094L12.586 4.49716C11.9896 4.87011 11.4571 5.23465 10.8708 5.62607C10.5684 5.82766 10.3198 5.99398 10.0174 6.19389C9.71837 6.3938 9.44118 6.56347 9.1556 6.75498C8.58442 7.13465 8.03173 7.50255 7.44879 7.89229C6.86586 8.28036 6.30308 8.63986 5.73359 9.0212Z" fill="#C0F10A"/>
</svg>
