<svg width="22" height="20" viewBox="0 0 22 20" fill="none" xmlns="http://www.w3.org/2000/svg">
<path d="M21.5574 14.6165C21.4176 14.4067 20.462 13.9406 20.462 13.9406C20.1125 13.7542 17.3857 12.4258 16.873 12.2393C16.4302 12.0995 15.9408 11.9131 15.498 12.5656C15.1484 13.0783 14.1696 14.2203 13.8433 14.5932C13.6103 14.8495 13.4238 14.9428 12.9111 14.6864C12.8179 14.6398 10.3942 13.6143 8.73948 12.1228C7.24795 10.8177 6.22251 9.20965 5.84963 8.5571C5.61658 8.18422 5.77971 7.99777 6.05938 7.71811C6.22251 7.53167 6.99159 6.62276 7.0615 6.52954C7.17803 6.3431 7.38778 5.9003 7.38778 5.9003C7.62083 5.4575 7.481 5.06131 7.36447 4.82825C7.27125 4.64181 5.87293 1.28585 5.7331 0.982882C5.33691 0.0273646 4.91742 -0.019246 4.52123 0.00405934C4.31148 0.00405934 2.47036 0.0273646 1.88773 0.656608L1.7712 0.773134C1.18857 1.37907 0 2.66086 0 5.10792C0 5.69055 0.0932212 6.27318 0.279664 6.92573C0.629243 8.1143 1.28179 9.4194 2.16739 10.608C2.1907 10.6313 3.5424 12.4957 4.21826 13.2881C6.36234 15.7351 8.76279 17.5529 11.2098 18.5085C14.3094 19.7203 15.6379 20 16.4069 20C16.7332 20 17.4324 19.8369 17.5722 19.8136C18.5277 19.7436 20.7883 18.5551 21.2544 17.2267C21.6972 15.9915 21.7205 14.8961 21.5574 14.6165Z" fill="#C0F10A"/>
</svg>
