<svg width="31" height="25" viewBox="0 0 31 25" fill="none" xmlns="http://www.w3.org/2000/svg">
<path d="M15.8492 0C15.8492 0 6.37373 -4.74984e-05 4.01032 0.633223C2.70591 0.981673 1.68089 2.0082 1.33244 3.31111C0.699171 5.67451 0.699219 12.12 0.699219 12.12C0.699219 12.12 0.699171 18.5655 1.33244 20.9289C1.68089 22.2333 2.70742 23.2583 4.01032 23.6068C6.37373 24.2401 15.8492 24.24 15.8492 24.24C15.8492 24.24 25.3247 24.2401 27.6881 23.6068C28.991 23.2583 30.0176 22.2318 30.366 20.9289C30.9993 18.5655 30.9992 12.12 30.9992 12.12C30.9992 12.12 30.9993 5.67451 30.366 3.31111C30.0176 2.0082 28.991 0.981673 27.6881 0.633223C25.3247 -4.74984e-05 15.8492 0 15.8492 0ZM15.8492 3.03C20.2155 3.03 25.6829 3.23242 26.904 3.55966C27.16 3.62784 27.3699 3.83769 27.4396 4.09524C27.8047 5.45571 27.9692 9.60814 27.9692 12.12C27.9692 14.6319 27.8047 18.7828 27.4396 20.1448C27.3714 20.4008 27.1616 20.6107 26.904 20.6804C25.6844 21.0076 20.2155 21.21 15.8492 21.21C11.4845 21.21 6.01706 21.0076 4.79446 20.6804C4.53842 20.6122 4.32857 20.4023 4.25888 20.1448C3.89376 18.7843 3.72922 14.6319 3.72922 12.12C3.72922 9.60814 3.89376 5.45578 4.25888 4.09228C4.32705 3.83776 4.53691 3.62784 4.79446 3.55966C6.01403 3.23242 11.483 3.03 15.8492 3.03ZM12.8192 6.87077V17.3693L21.9092 12.12L12.8192 6.87077Z" fill="white"/>
</svg>
