<svg width="34" height="27" viewBox="0 0 34 27" fill="none" xmlns="http://www.w3.org/2000/svg">
<path d="M16.5063 0C16.5063 0 6.18249 -5.17505e-05 3.60752 0.68991C2.18633 1.06955 1.06955 2.18798 0.68991 3.60752C-5.17505e-05 6.18249 0 13.205 0 13.205C0 13.205 -5.17505e-05 20.2275 0.68991 22.8025C1.06955 24.2237 2.18798 25.3404 3.60752 25.7201C6.18249 26.4101 16.5063 26.41 16.5063 26.41C16.5063 26.41 26.83 26.4101 29.405 25.7201C30.8245 25.3404 31.9429 24.222 32.3226 22.8025C33.0126 20.2275 33.0125 13.205 33.0125 13.205C33.0125 13.205 33.0126 6.18249 32.3226 3.60752C31.9429 2.18798 30.8245 1.06955 29.405 0.68991C26.83 -5.17505e-05 16.5063 0 16.5063 0ZM16.5063 3.30125C21.2634 3.30125 27.2203 3.52179 28.5507 3.87832C28.8296 3.9526 29.0582 4.18124 29.1342 4.46185C29.532 5.94411 29.7113 10.4683 29.7113 13.205C29.7113 15.9417 29.532 20.4642 29.1342 21.9482C29.0599 22.2271 28.8313 22.4557 28.5507 22.5317C27.2219 22.8882 21.2634 23.1087 16.5063 23.1087C11.7508 23.1087 5.7939 22.8882 4.46185 22.5317C4.18289 22.4574 3.95425 22.2288 3.87832 21.9482C3.48052 20.4659 3.30125 15.9417 3.30125 13.205C3.30125 10.4683 3.48052 5.94418 3.87832 4.45862C3.9526 4.18132 4.18124 3.9526 4.46185 3.87832C5.7906 3.52179 11.7491 3.30125 16.5063 3.30125ZM13.205 7.48584V18.9242L23.1087 13.205L13.205 7.48584Z" fill="#C0F10A"/>
</svg>
